<svg width="39" height="39" viewBox="0 0 39 39" fill="none" xmlns="http://www.w3.org/2000/svg">
<path fill-rule="evenodd" clip-rule="evenodd" d="M22.9333 7.06667C22.4179 7.06667 22 7.48454 22 8V13.3333C22 13.8488 22.4179 14.2667 22.9333 14.2667H28.2667C28.7821 14.2667 29.2 13.8488 29.2 13.3333V8C29.2 7.48454 28.7821 7.06667 28.2667 7.06667H22.9333ZM19.6 8C19.6 6.15905 21.0924 4.66667 22.9333 4.66667H28.2667C30.1076 4.66667 31.6 6.15905 31.6 8V13.3333C31.6 15.1743 30.1076 16.6667 28.2667 16.6667H22.9333C21.0924 16.6667 19.6 15.1743 19.6 13.3333V8Z" fill="#676C6F"/>
<path fill-rule="evenodd" clip-rule="evenodd" d="M8 3.60007C8.66274 3.60007 9.2 4.13733 9.2 4.80007V8.80007C9.2 8.96303 9.29306 9.23402 9.69273 9.51379C10.0884 9.79076 10.6986 10.0001 11.4286 10.0001H16C16.6627 10.0001 17.2 10.5373 17.2 11.2001C17.2 11.8628 16.6627 12.4001 16 12.4001H11.4286C10.266 12.4001 9.16189 12.0718 8.31642 11.4799C7.47494 10.8909 6.8 9.9619 6.8 8.80007V4.80007C6.8 4.13733 7.33726 3.60007 8 3.60007Z" fill="#676C6F"/>
<path fill-rule="evenodd" clip-rule="evenodd" d="M8 8.40007C8.66274 8.40007 9.2 8.93733 9.2 9.60007V25.8462C9.2 26.6524 10.0247 27.6001 11.4286 27.6001H16C16.6627 27.6001 17.2 28.1373 17.2 28.8001C17.2 29.4628 16.6627 30.0001 16 30.0001H11.4286C9.04733 30.0001 6.8 28.3011 6.8 25.8462V9.60007C6.8 8.93733 7.33726 8.40007 8 8.40007Z" fill="#676C6F"/>
<path d="M27.4139 23.7141V27.2147H29.8096C31.1273 27.2147 31.7861 26.6281 31.7861 25.4738C31.7861 24.3953 31.1472 23.7141 29.8496 23.7141H27.4139ZM29.9095 30.1477H27.4139V33.5348C27.4139 34.4242 26.6153 35.2 25.7169 35.2C25.2578 35.2 24.8585 35.0297 24.5191 34.708C24.1797 34.3674 24 33.97 24 33.5348V22.7301C24 21.6137 24.7986 20.8 26.0963 20.8H30.0891C31.5266 20.8 32.7444 21.2163 33.7226 22.0489C34.7009 22.8815 35.2 24.0168 35.2 25.4549C35.2 26.912 34.7009 28.0662 33.7226 28.8988C32.7444 29.7314 31.4866 30.1477 29.9095 30.1477Z" fill="#FF950F"/>
<path d="M20.7915 24.0126C19.901 24.0126 19.2 23.2756 19.2 22.3874C19.2 21.4992 19.8821 20.8 20.7915 20.8C21.682 20.8 22.383 21.4992 22.383 22.3874C22.383 23.2756 21.6441 24.0126 20.7915 24.0126ZM20.7915 24.7685C21.682 24.7685 22.3641 25.4677 22.3641 26.3748V33.5937C22.3641 34.4819 21.682 35.2 20.7915 35.2C19.9579 35.2 19.2379 34.4819 19.2379 33.5937V26.3748C19.2379 25.4677 19.8821 24.7685 20.7915 24.7685Z" fill="#FF950F"/>
</svg>
