<svg width="120" height="120" viewBox="0 0 120 120" fill="none" xmlns="http://www.w3.org/2000/svg">
<path fill-rule="evenodd" clip-rule="evenodd" d="M115.312 45.2869V69.9825C115.312 69.9825 115.417 94.3388 108.506 105.986C108.332 106.254 108.037 106.416 107.72 106.416C100.545 106.421 57.9467 106.421 46.0367 106.421C45.7086 106.421 45.4048 106.251 45.2342 105.969C45.0654 105.69 45.0542 105.341 45.2061 105.051C45.2136 105.038 45.2192 105.023 45.2248 105.009C49.4604 95.8331 50.8892 81.7631 51.3486 74.5688C51.3823 74.0513 50.9886 73.6069 50.4729 73.5731C49.9573 73.5394 49.5111 73.9331 49.4773 74.4488C49.0292 81.4744 47.6679 95.2125 43.5392 104.188C43.0892 105.075 43.1267 106.108 43.6311 106.941C44.1411 107.783 45.0523 108.296 46.0348 108.296C57.9467 108.296 100.547 108.296 107.72 108.291C108.682 108.291 109.577 107.798 110.092 106.984C110.096 106.978 110.102 106.971 110.105 106.963C117.217 95.0081 117.187 69.9769 117.187 69.9769V45.2869C117.187 44.7694 116.767 44.3494 116.25 44.3494C115.732 44.3494 115.312 44.7694 115.312 45.2869Z" fill="#676C6F"/>
<path fill-rule="evenodd" clip-rule="evenodd" d="M49.6875 18.1444V19.3988C49.6875 19.4663 49.695 19.5319 49.7081 19.5956C49.7306 19.7063 49.77 19.7981 49.8206 19.8788L49.8337 19.9031C50.0006 20.1638 50.2931 20.3363 50.625 20.3363C50.625 20.3363 51.5625 20.2594 51.5625 19.3819V18.1444C51.5625 17.6269 51.9825 17.2069 52.5 17.2069H89.2631C89.7806 17.2069 90.2006 16.7869 90.2006 16.2694C90.2006 15.7519 89.7806 15.3319 89.2631 15.3319C89.2631 15.3319 60.2344 15.3319 52.5 15.3319C50.9475 15.3319 49.6875 16.5919 49.6875 18.1444Z" fill="#676C6F"/>
<path fill-rule="evenodd" clip-rule="evenodd" d="M115.905 40.9406C116.276 41.0869 116.698 40.9819 116.959 40.6819C117.219 40.38 117.261 39.9488 117.064 39.6019C111.774 30.3563 104.527 22.3331 95.3474 15.5175C95.0343 15.285 94.6106 15.27 94.2824 15.48C93.9562 15.69 93.7912 16.0819 93.8718 16.4625C95.2537 23.0644 95.9324 29.745 95.2631 36.5756C95.1712 37.4363 95.4881 38.2969 96.1199 38.8988C96.7537 39.5006 97.6293 39.7744 98.4918 39.6375C104.505 38.7094 110.37 38.7544 115.905 40.9406Z" fill="#FF950F"/>
<path fill-rule="evenodd" clip-rule="evenodd" d="M38.8951 26.0325C46.4251 23.4787 55.0914 25.2019 61.0895 31.2C68.1376 38.2481 69.2832 48.9787 64.5245 57.2231C64.3932 57.4519 64.3632 57.7237 64.442 57.975L67.3951 67.3369C67.4345 67.4644 67.4007 67.6012 67.307 67.695L67.0557 67.9462C66.9826 68.0175 66.8757 68.0437 66.7782 68.0137L57.3695 65.0456C57.1182 64.9669 56.8464 64.9969 56.6195 65.1281C48.3751 69.8869 37.6445 68.7431 30.5964 61.695C22.1814 53.28 22.1814 39.615 30.5964 31.2C30.962 30.8344 30.962 30.24 30.5964 29.8744C30.2289 29.5087 29.6364 29.5087 29.2689 29.8744C20.1226 39.0206 20.1226 53.8725 29.2689 63.0206C36.8289 70.5788 48.2832 71.8912 57.1951 66.9562L66.2139 69.8025C66.9789 70.0425 67.8151 69.8381 68.3814 69.2719L68.6326 69.0206C69.2214 68.4319 69.4332 67.5656 69.182 66.7744L66.3526 57.7987C71.2857 48.8887 69.9732 37.4325 62.4151 29.8744C55.8957 23.355 46.4776 21.4819 38.2932 24.2569C37.8039 24.4219 37.5395 24.9562 37.7064 25.4456C37.8732 25.935 38.4057 26.1994 38.8951 26.0325Z" fill="#676C6F"/>
<path fill-rule="evenodd" clip-rule="evenodd" d="M41.8742 40.0031C41.833 38.2163 42.5024 36.9113 43.5392 36.1463C45.1667 34.9463 47.5967 34.9969 48.9167 36.4838C49.4849 37.1231 49.813 38.0269 49.8224 39.1706C49.8449 41.9138 48.5567 43.5169 47.2986 45.1763C45.6036 47.4131 43.9105 49.7119 43.7005 53.5519C43.6442 54.585 44.4374 55.4681 45.4705 55.5244C46.5036 55.5806 47.3886 54.7875 47.4449 53.7544C47.6042 50.8388 48.9992 49.14 50.2874 47.4413C52.0124 45.1669 53.6024 42.8981 53.5724 39.1406C53.5536 36.9319 52.8167 35.2275 51.7217 33.9938C49.1624 31.1138 44.4655 30.8025 41.3136 33.1275C39.4236 34.5225 38.0492 36.8325 38.1261 40.0913C38.1505 41.1263 39.0092 41.9475 40.0442 41.9213C41.0792 41.8969 41.8986 41.0381 41.8742 40.0031Z" fill="#FF950F"/>
<path d="M45.398 62.4881C46.6718 62.4881 47.7043 61.4556 47.7043 60.1819C47.7043 58.9082 46.6718 57.8756 45.398 57.8756C44.1243 57.8756 43.0918 58.9082 43.0918 60.1819C43.0918 61.4556 44.1243 62.4881 45.398 62.4881Z" fill="#FF950F"/>
<path fill-rule="evenodd" clip-rule="evenodd" d="M22.9072 15.6825L30.4072 25.1175C31.0522 25.9275 32.2316 26.0625 33.0416 25.4194C33.8516 24.7763 33.9866 23.595 33.3435 22.785L25.8435 13.35C25.1985 12.54 24.0191 12.405 23.2091 13.0481C22.3991 13.6931 22.2641 14.8725 22.9072 15.6825Z" fill="#FF950F"/>
<path fill-rule="evenodd" clip-rule="evenodd" d="M2.81632 20.3756L22.4138 31.6256C23.3101 32.1413 24.4576 31.8319 24.9732 30.9338C25.4888 30.0356 25.1776 28.89 24.2794 28.3744L4.68382 17.1244C3.78569 16.6088 2.64007 16.9181 2.12444 17.8163C1.60882 18.7144 1.91819 19.86 2.81632 20.3756Z" fill="#FF950F"/>
<path fill-rule="evenodd" clip-rule="evenodd" d="M5.625 41.25H18.75C19.785 41.25 20.625 40.41 20.625 39.375C20.625 38.34 19.785 37.5 18.75 37.5H5.625C4.59 37.5 3.75 38.34 3.75 39.375C3.75 40.41 4.59 41.25 5.625 41.25Z" fill="#FF950F"/>
</svg>
