<svg width="20" height="20" viewBox="0 0 20 20" fill="none" xmlns="http://www.w3.org/2000/svg">
<g clip-path="url(#clip0_39_884)">
<path d="M11.9026 4.40801C12.1911 4.10262 12.4054 3.72633 12.5165 3.30758C12.7619 2.38199 12.5106 1.4314 11.844 0.764842C10.4321 -0.646994 7.99325 -0.0114472 7.48356 1.91015C7.24418 2.81265 7.47747 3.73883 8.10731 4.40242C6.90364 5.07051 6.08704 6.35465 6.08704 7.82617C6.08704 8.18633 6.37903 8.47832 6.73918 8.47832H13.2609C13.621 8.47832 13.913 8.18633 13.913 7.82617C13.913 6.35875 13.1009 5.07762 11.9026 4.40801ZM8.7443 2.24453C8.99825 1.28683 10.2266 0.992147 10.9216 1.68711C11.2558 2.02125 11.3807 2.50195 11.2557 2.97308C11.1422 3.40109 10.7923 3.75097 10.3643 3.86449C9.89329 3.98949 9.41251 3.86457 9.07836 3.53047C8.74422 3.19637 8.6193 2.71566 8.7443 2.24453ZM7.47383 7.17402C7.76395 6.0507 8.78563 5.2184 9.99821 5.21758C9.99825 5.21758 9.99833 5.21758 9.99836 5.21758C9.99907 5.21758 9.99973 5.21754 10.0004 5.21754C11.2135 5.21769 12.2358 6.05027 12.5261 7.17402H7.47383Z" fill="#7A8185"/>
<path d="M5.81579 15.9296C6.10426 15.6242 6.31852 15.2479 6.42962 14.8291C6.67508 13.9036 6.42372 12.953 5.75711 12.2865C4.34809 10.8774 1.90758 11.5059 1.39672 13.4318C1.15735 14.3343 1.39063 15.2605 2.02047 15.9241C0.816724 16.5921 0.00012207 17.8763 0.00012207 19.3478C0.00012207 19.7079 0.292114 19.9999 0.652271 19.9999H7.17395C7.53411 19.9999 7.8261 19.7079 7.8261 19.3477C7.82614 17.8803 7.01403 16.5991 5.81579 15.9296ZM2.65747 13.7661C2.91141 12.8084 4.13981 12.5137 4.83481 13.2087C5.16899 13.5428 5.29383 14.0235 5.16883 14.4946C5.05536 14.9227 4.70544 15.2725 4.27739 15.3861C3.80629 15.511 3.32555 15.3861 2.99149 15.052C2.65731 14.718 2.53247 14.2372 2.65747 13.7661ZM1.387 18.6956C1.67715 17.5722 2.69887 16.74 3.91137 16.7391C3.91141 16.7391 3.91149 16.7391 3.91153 16.7391C3.91223 16.7391 3.91286 16.7391 3.91356 16.7391C5.12669 16.7393 6.14903 17.5718 6.43926 18.6956L1.387 18.6956Z" fill="#7A8185"/>
<path d="M17.9895 15.9296C18.278 15.6242 18.4923 15.2479 18.6034 14.8291C18.8488 13.9036 18.5975 12.953 17.9309 12.2865C16.5218 10.8774 14.0813 11.5059 13.5705 13.4318C13.3311 14.3343 13.5644 15.2605 14.1942 15.9241C12.9906 16.5921 12.174 17.8763 12.174 19.3478C12.174 19.708 12.4659 20 12.8261 20H19.3478C19.7079 20 19.9999 19.708 19.9999 19.3478C19.9999 17.8803 19.1878 16.5992 17.9895 15.9296ZM14.8312 13.7661C15.0852 12.8084 16.3136 12.5137 17.0086 13.2087C17.3427 13.5428 17.4676 14.0236 17.3426 14.4947C17.2291 14.9227 16.8792 15.2726 16.4512 15.3861C15.9801 15.5111 15.4993 15.3862 15.1653 15.0521C14.8311 14.718 14.7062 14.2373 14.8312 13.7661ZM13.5607 18.6956C13.8509 17.5723 14.8725 16.74 16.0851 16.7392C16.0852 16.7392 16.0852 16.7392 16.0853 16.7392C16.086 16.7392 16.0866 16.7391 16.0873 16.7391C17.3004 16.7394 18.3228 17.5719 18.613 18.6957L13.5607 18.6956Z" fill="#7A8185"/>
<path d="M13.0698 11.7128L10.4611 9.1041C10.2065 8.84941 9.79351 8.84941 9.53882 9.1041L6.93015 11.7128C6.67546 11.9675 6.67546 12.3804 6.93015 12.6351C7.1848 12.8898 7.59777 12.8898 7.85246 12.6351L9.99999 10.4875L12.1475 12.635C12.4022 12.8897 12.8152 12.8898 13.0698 12.635C13.3245 12.3804 13.3245 11.9675 13.0698 11.7128Z" fill="#7A8185"/>
</g>
<defs>
<clipPath id="clip0_39_884">
<rect width="20" height="20" fill="white"/>
</clipPath>
</defs>
</svg>
